<svg width="1105" height="300" viewBox="0 0 1105 300" fill="none" xmlns="http://www.w3.org/2000/svg">
<g clip-path="url(#clip0_3031_385)">
<g clip-path="url(#clip1_3031_385)">
<path d="M166.098 6.4064C181.017 16.1636 181.238 41.0528 166.811 51.3484C154.432 51.5116 158.548 64.8381 158 72.9604C156.023 81.8525 160.148 84.7117 168.085 87.706C182.46 102.672 185.234 124.4 193.405 142.793C198.557 151.774 200.275 168.477 208.774 172.472C214.63 161.928 224.299 155.565 235.062 150.655C246.831 144.998 260.289 141.694 273.312 144.234C286.913 153.782 266.572 164.794 257.078 159.428C242.811 161.885 229.496 170.495 220.629 181.765C215.115 198.284 241.843 203.241 253.501 206.542C261.928 206.382 286.022 207.296 274.346 220.363C263.648 227.199 250.363 220.796 239.064 218.389C225.743 217.484 218.779 202.664 206.501 201.431C195.514 222.635 190.164 246.355 178 267C169.919 279.322 153.93 287.637 139.286 280.505C127.253 273.074 120.914 259.141 115.71 246.42C110.823 233.85 106.478 221.21 100.988 208.993C97.6494 203.292 95.1583 193.393 89.3646 203.306C73.3831 219.352 49.2522 224.538 27.3862 221.494C15.0534 204.535 45.48 207.403 54.8611 205.012C65.2928 201.062 86.1935 193.348 83.7663 181.279C73.7853 170.731 61.9473 159.754 46.4306 159.826C36.6391 162.069 13.718 154.61 29.5183 144.227C41.066 140.387 54.0834 145.31 65.4023 148.927C77.1541 153.713 87.1092 162.177 95.0001 172C111.753 147.652 114.589 116.7 131.132 92.2413C143.457 86.321 145.337 72.4802 144.292 60.5384C136.776 49.218 120.565 41.203 124.037 24.697C126.663 10.6277 141.749 -1.79304 156.217 2.40889C159.673 3.23005 163.171 4.33153 166.098 6.4064ZM142 101C126.193 126.339 122.963 157.415 106.372 182.355C103.965 196.424 117.731 206.132 120.446 219.205C126.487 235.989 129.529 255.958 144.942 267.168C162.845 273.239 170.849 251.023 175.844 238.017C182.61 220.908 188.686 203.497 196.611 186.87C192.809 172.292 182.798 160.189 179.434 145.405C173.282 129.531 170.315 111.345 158.087 98.7037C153.151 95.4263 145.883 96.6165 142 101Z" fill="#D9D9D9"/>
<path d="M241 59.0002C244.54 61.7559 244.459 66.412 244.288 70.4529C244.205 77.6354 244.117 84.818 244 92.0002C253.116 91.8609 262.249 91.572 271.357 91.6265C275.728 91.6128 279.197 95.9863 277.72 100.22C277.345 105.539 271.596 106.126 267.387 105.968C259.587 105.777 251.796 105.31 244 105C244.107 116.298 244.493 127.605 244.358 138.898C244.268 142.977 241.099 146.36 237.007 146.71C232.998 147.59 231.542 141.7 230.104 138.764C227.876 131.16 229.149 123.142 228.907 115.344C227.995 112.359 231.247 105.273 226.601 106.004C218.984 105.783 211.329 106.192 203.741 105.453C200.481 104.764 196.247 100.806 197.705 97.497C198.825 91.7907 204.483 91.3227 209.264 91.6524C216.176 91.4347 223.088 91.2089 230 91.0002C229.547 83.2483 228.509 75.4779 228.998 67.7121C229.352 63.4293 232.306 59.4234 236.738 58.8604C238.154 58.6589 239.593 58.7944 241 59.0002Z" fill="#D9D9D9"/>
<path d="M64 58.375C69.4365 58.7761 71.8651 64.8809 71.4022 69.6659C71.298 76.7777 71.1544 83.8889 71 91C72.2323 91.1115 74.1771 92.9431 74.5319 90.9361C75.6335 88.487 74.0582 93.2432 76.1855 91.9033C83.4015 91.5057 90.639 90.357 97.8677 90.9165C102.841 90.5815 104.507 95.8199 104.162 99.9031C104.336 104.858 98.4051 106.089 94.4572 105.819C86.2952 106.119 78.1465 105.375 70 105C70.3991 116.054 71.4807 127.112 71.1213 138.177C71.0362 140.618 70.3772 143.487 68 143.238C68.752 146.437 62.8641 146.288 61.1651 145.323C56.9348 142.59 56.4467 137.692 56.62 133.135C56.5674 125.685 55.7393 118.227 56.1434 110.783C56.2644 107.847 58.4414 103.569 53.672 105.076C45.4749 105.095 37.2476 105.575 29.0693 105.301C24.3978 105.048 22.2127 98.3848 24.7957 94.9779C27.4311 90.9925 32.5405 91.4657 36.6825 91.6288C43.4545 91.7687 50.2282 91.8333 57 92C56.8107 83.7132 56.6823 75.4256 56.5459 67.1379C56.8833 62.895 59.5344 58.9687 64 58.375Z" fill="#D9D9D9"/>
<path d="M238.687 222C242.801 222.479 244.89 226.567 244.205 230.371C244.146 236.581 244.087 242.791 244 249C253.115 248.826 262.256 248.465 271.357 248.533C276.227 248.843 279.177 254.399 277.622 258.785C276.756 263.094 271.992 263.57 268.392 263.205C260.261 263.142 252.13 263.089 244 263C244.117 272.789 244.474 282.587 244.37 292.372C244.38 296.461 240.236 298.69 236.568 297.767C232.128 298.01 230.149 293.565 229.428 289.849C228.396 283.742 228.807 277.495 228.979 271.332C228.545 269.271 231.625 265.123 228 266C228.398 264.273 227.747 263.594 226.012 264C218.341 264 210.671 264 203 264C203.358 262.446 202.772 261.484 201.21 261.134C197.047 260.326 196.516 254.145 199.306 251.761C203.715 247.471 210.159 248.499 215.774 248.256C220.182 248.163 224.59 248.044 229 248C229.188 241.901 228.945 235.765 229.614 229.697C230.215 225.569 233.435 221.302 238.038 222L238.687 222Z" fill="#D9D9D9"/>
<path d="M64.625 222.125C68.5599 222.387 71.0206 225.526 70.422 229.371C70.8711 235.906 71.3481 242.531 70 249C79.4552 248.867 88.9286 248.563 98.375 248.626C103.049 248.669 106.067 254.93 104.235 258.793C104.24 261.269 101.714 260.635 101 261.446C101.642 263.497 99.7079 262.973 98.3251 263C88.8834 263 79.4417 263 70 263C70.7946 269.351 71.402 275.724 71.1869 282.136C71.0558 287.159 72.2014 292.643 69 297C66.2556 298.244 61.9788 299.309 59.7719 296.76C55.4239 292.352 56.4929 285.864 56.0901 280.243C55.7976 275.664 56.28 271.042 55.8902 266.491C55.1185 261.711 48.6223 264.869 45.1358 263.828C39.9962 263.602 34.7953 263.91 29.7018 263.277C26.4292 262.488 23.2845 259.583 23.625 256C23.2622 251.602 27.8213 248.389 31.889 248.438C39.9257 248.278 47.9623 248.114 56 248C56.2205 241.246 56.0942 234.467 56.6864 227.734C57.252 223.726 60.5968 221.259 64.625 222.125Z" fill="#D9D9D9"/>
<path d="M66 222C64 223.333 62 224.667 60 226C59.5248 228.188 59.5248 228.188 59.5586 230.719C59.5322 231.651 59.5057 232.583 59.4785 233.543C59.465 234.519 59.4514 235.495 59.4375 236.5C59.4031 238.427 59.3606 240.354 59.3086 242.281C59.2963 243.138 59.2839 243.994 59.2712 244.877C59 247 59 247 57 249C55.7483 244.27 55.9572 239.774 56.1875 234.937C56.2062 234.135 56.2249 233.333 56.2441 232.506C56.4252 228.679 56.5567 226.6 58.8789 223.457C61.4499 221.691 62.9427 221.66 66 222ZM28 249C37.57 249 47.14 249 57 249C57 249.33 57 249.66 57 250C47.43 250 37.86 250 28 250C28 249.67 28 249.34 28 249Z" fill="#D9D9D9"/>
<path d="M276 95C276.66 95.33 277.32 95.66 278 96C277.25 102.75 277.25 102.75 275 105C271.214 106.07 267.735 106.052 263.824 105.879C262.781 105.836 261.738 105.793 260.663 105.748C259.351 105.687 258.039 105.626 256.688 105.562C252.501 105.377 248.314 105.191 244 105C244 117.21 244 129.42 244 142C243.01 142.495 243.01 142.495 242 143C242.33 130.13 242.66 117.26 243 104C258.345 103.505 258.345 103.505 274 103C274.33 101.68 274.66 100.36 275 99C275.333 97.6667 275.667 96.3333 276 95Z" fill="#D9D9D9"/>
<path d="M206 262C214.25 262 222.5 262 231 262C232.007 272.701 232.102 283.261 232 294C228.614 288.922 228.842 283.895 228.875 277.938C228.869 276.877 228.869 276.877 228.863 275.795C228.87 272.391 228.935 269.253 230 266C229.34 266 228.68 266 228 266C228 265.34 228 264.68 228 264C220.74 263.67 213.48 263.34 206 263C206 262.67 206 262.34 206 262Z" fill="#D9D9D9"/>
<path d="M232 224C232.495 224.99 232.495 224.99 233 226C232.67 226.66 232.34 227.32 232 228C231.928 229.583 231.916 231.169 231.938 232.754C231.949 234.159 231.949 234.159 231.961 235.592C231.974 236.572 231.987 237.552 232 238.562C232.025 240.501 232.046 242.44 232.062 244.379C232.074 245.241 232.086 246.103 232.098 246.99C232 249 232 249 231 250C229.048 250.122 227.092 250.18 225.137 250.211C223.94 250.239 222.743 250.268 221.51 250.297C218.973 250.349 216.437 250.393 213.9 250.43C212.7 250.461 211.499 250.492 210.262 250.523C209.158 250.543 208.054 250.563 206.917 250.583C203.694 251.044 202.297 251.727 200 254C199.196 256.599 199.196 256.599 199 259C198.67 259 198.34 259 198 259C197.688 256.25 197.688 256.25 198 253C201.592 249.355 204.122 248.49 209.176 248.391C210.333 248.358 211.49 248.326 212.682 248.293C213.88 248.279 215.078 248.265 216.312 248.25C218.139 248.206 218.139 248.206 220.002 248.16C223.001 248.09 226 248.037 229 248C229.02 247.38 229.04 246.759 229.06 246.12C229.155 243.309 229.265 240.498 229.375 237.688C229.421 236.223 229.421 236.223 229.469 234.729C229.507 233.791 229.546 232.853 229.586 231.887C229.617 231.023 229.649 230.159 229.681 229.268C230 227 230 227 232 224Z" fill="#D9D9D9"/>
<path d="M231 68C231.33 68 231.66 68 232 68C232 76.25 232 84.5 232 93C222.1 93 212.2 93 202 93C202 92.67 202 92.34 202 92C211.24 91.67 220.48 91.34 230 91C229.593 84.9264 229.593 84.9264 229.162 78.8545C229.093 77.7122 229.093 77.7122 229.023 76.5469C228.971 75.7718 228.919 74.9968 228.865 74.1982C229.019 71.692 229.744 70.1516 231 68Z" fill="#D9D9D9"/>
<path d="M56.9998 262C57.6598 262 58.3198 262 58.9998 262C58.9998 272.89 58.9998 283.78 58.9998 295C56.0743 292.074 56.5349 288.871 56.3748 284.938C56.3369 284.169 56.2989 283.401 56.2598 282.609C56.0169 277.401 55.9099 272.213 55.9998 267C55.9998 266.01 55.9998 265.02 55.9998 264C56.3298 263.34 56.6598 262.68 56.9998 262Z" fill="#D9D9D9"/>
<path d="M161 4.00005C158.234 4.92193 156.617 5.1179 153.77 5.0977C152.967 5.09448 152.165 5.09126 151.338 5.08794C150.505 5.07956 149.671 5.07118 148.812 5.06255C147.968 5.05804 147.123 5.05352 146.252 5.04887C144.168 5.0371 142.084 5.01917 140 5.00005C140 4.34005 140 3.68005 140 3.00005C146.839 1.56016 154.632 0.603972 161 4.00005Z" fill="#D9D9D9"/>
<path d="M69 103C79.23 103 89.46 103 100 103C100 103.33 100 103.66 100 104C99.2369 104.144 98.4737 104.289 97.6875 104.438C94.9183 104.963 94.9183 104.963 92 106C91.34 105.67 90.68 105.34 90 105C88.4074 104.848 86.8094 104.751 85.2109 104.684C84.2699 104.642 83.3289 104.6 82.3594 104.557C81.3745 104.517 80.3897 104.478 79.375 104.438C78.3824 104.394 77.3898 104.351 76.3672 104.307C73.9116 104.2 71.4559 104.098 69 104C69 103.67 69 103.34 69 103Z" fill="#D9D9D9"/>
<path d="M175 29C175.33 29 175.66 29 176 29C175.527 34.4872 175.06 39.8495 173 45C170.625 46.8125 170.625 46.8125 168 48C166.665 48.6628 165.331 49.3288 164 50C164.908 49.0512 165.815 48.1025 166.75 47.125C171.255 41.8961 173.454 35.6599 175 29Z" fill="#D9D9D9"/>
<path d="M137.199 7.33977C137.793 7.55762 138.388 7.77547 139 7.99992C137.881 9.17255 136.755 10.3379 135.625 11.4999C134.999 12.1496 134.372 12.7993 133.727 13.4687C132 14.9999 132 14.9999 130 14.9999C129.34 16.3199 128.68 17.6399 128 18.9999C128.244 13.8666 129.893 11.5312 133.332 8.00383C135 6.99992 135 6.99992 137.199 7.33977Z" fill="#D9D9D9"/>
<path d="M40 142C41.1756 142.433 41.1756 142.433 42.375 142.875C46.8623 144.268 51.3853 145.143 56 146C56 146.33 56 146.66 56 147C52.7076 146.89 49.4164 146.76 46.125 146.625C45.1879 146.594 44.2507 146.563 43.2852 146.531C42.3893 146.493 41.4934 146.454 40.5703 146.414C39.7429 146.383 38.9155 146.351 38.063 146.319C36 146 36 146 34 144C35.98 144 37.96 144 40 144C40 143.34 40 142.68 40 142Z" fill="#D9D9D9"/>
<path d="M232 224C232.33 224.66 232.66 225.32 233 226C232.67 226.66 232.34 227.32 232 228C231.916 229.521 231.893 231.047 231.902 232.57C231.906 233.466 231.909 234.362 231.912 235.285C231.92 236.222 231.929 237.159 231.938 238.125C231.942 239.07 231.947 240.015 231.951 240.988C231.963 243.326 231.979 245.663 232 248C231.01 247.67 230.02 247.34 229 247C229.11 243.728 229.24 240.458 229.375 237.188C229.406 236.259 229.437 235.33 229.469 234.373C229.507 233.48 229.546 232.588 229.586 231.668C229.617 230.846 229.649 230.024 229.681 229.177C230 227 230 227 232 224Z" fill="#D9D9D9"/>
<path d="M65.9999 222C63.9999 223.333 61.9999 224.667 59.9999 226C59.496 227.934 59.496 227.934 59.4374 230.063C59.2209 232.012 59.2209 232.012 58.9999 234C58.0099 234.495 58.0099 234.495 56.9999 235C56.38 226.941 56.38 226.941 58.6874 223.438C61.3748 221.767 62.8915 221.655 65.9999 222Z" fill="#D9D9D9"/>
<path d="M276 95C276.66 95.33 277.32 95.66 278 96C277.25 102.75 277.25 102.75 275 105C272.375 105.625 272.375 105.625 270 106C270 105.34 270 104.68 270 104C271.65 103.34 273.3 102.68 275 102C275.33 99.69 275.66 97.38 276 95Z" fill="#D9D9D9"/>
<path d="M240 224C239.423 224.227 238.845 224.454 238.25 224.687C235.434 226.33 233.919 228.395 232 231C232.256 228.657 232.593 226.321 233 224C235.667 222.667 237.167 223.329 240 224Z" fill="#D9D9D9"/>
<path d="M33 143C33.33 143.66 33.66 144.32 34 145C35.8953 145.465 35.8953 145.465 38.0625 145.625C39.3619 145.749 40.6612 145.873 42 146C42 146.33 42 146.66 42 147C37.71 147 33.42 147 29 147C30.32 145.68 31.64 144.36 33 143Z" fill="#D9D9D9"/>
<path d="M200 97C200.268 97.5981 200.536 98.1963 200.812 98.8125C201.985 100.972 203.194 102.358 205 104C202.625 103.688 202.625 103.688 200 103C199.34 102.01 198.68 101.02 198 100C198.66 99.01 199.32 98.02 200 97Z" fill="#D9D9D9"/>
<path d="M231 295C237.055 294.805 237.055 294.805 239 295C239.66 295.66 240.32 296.32 241 297C240.67 297.33 240.34 297.66 240 298C233.4 297.4 233.4 297.4 231 295Z" fill="#D9D9D9"/>
<path d="M231 130C231.33 130 231.66 130 232 130C232 133.96 232 137.92 232 142C229.357 138.036 229.357 138.036 229 135C229.938 132.25 229.938 132.25 231 130Z" fill="#D9D9D9"/>
<path d="M170 45C170.33 45.66 170.66 46.32 171 47C169.35 48.65 167.7 50.3 166 52C165.01 51.67 164.02 51.34 163 51C165.31 49.02 167.62 47.04 170 45Z" fill="#D9D9D9"/>
<path d="M265 106C267 107 267 107 267 107L265 106Z" fill="#D9D9D9"/>
</g>
<g clip-path="url(#clip2_3031_385)">
<path d="M399.055 120.078C398.459 114.496 395.945 110.149 391.513 107.038C387.124 103.928 381.413 102.372 374.382 102.372C369.439 102.372 365.199 103.118 361.662 104.609C358.125 106.101 355.419 108.125 353.544 110.682C351.669 113.239 350.71 116.158 350.668 119.439C350.668 122.166 351.286 124.531 352.521 126.534C353.8 128.537 355.526 130.241 357.699 131.648C359.872 133.011 362.28 134.162 364.922 135.099C367.564 136.037 370.227 136.825 372.912 137.464L385.185 140.533C390.128 141.683 394.879 143.239 399.439 145.199C404.041 147.159 408.153 149.631 411.776 152.614C415.44 155.597 418.338 159.197 420.469 163.416C422.599 167.635 423.665 172.578 423.665 178.246C423.665 185.916 421.705 192.67 417.784 198.509C413.864 204.304 408.196 208.842 400.781 212.124C393.409 215.362 384.482 216.982 373.999 216.982C363.814 216.982 354.972 215.405 347.472 212.251C340.014 209.098 334.176 204.496 329.957 198.445C325.781 192.393 323.523 185.021 323.182 176.328H346.513C346.854 180.888 348.26 184.68 350.732 187.706C353.203 190.732 356.42 192.99 360.384 194.482C364.389 195.973 368.864 196.719 373.807 196.719C378.963 196.719 383.48 195.952 387.358 194.418C391.278 192.841 394.347 190.668 396.562 187.898C398.778 185.085 399.908 181.804 399.95 178.054C399.908 174.645 398.906 171.832 396.946 169.616C394.986 167.358 392.237 165.483 388.7 163.991C385.206 162.457 381.115 161.094 376.428 159.901L361.534 156.065C350.753 153.295 342.23 149.098 335.966 143.473C329.744 137.805 326.634 130.284 326.634 120.909C326.634 113.196 328.722 106.442 332.898 100.646C337.116 94.8509 342.848 90.3551 350.092 87.1591C357.337 83.9204 365.54 82.3011 374.702 82.3011C383.991 82.3011 392.131 83.9204 399.119 87.1591C406.151 90.3551 411.669 94.8082 415.675 100.518C419.68 106.186 421.747 112.706 421.875 120.078H399.055ZM458.166 251.818C455.012 251.818 452.093 251.563 449.409 251.051C446.767 250.582 444.657 250.028 443.081 249.389L448.45 231.364C451.816 232.344 454.821 232.813 457.463 232.77C460.105 232.727 462.427 231.896 464.43 230.277C466.475 228.7 468.201 226.058 469.608 222.351L471.589 217.045L435.985 116.818H460.531L483.159 190.966H484.181L506.873 116.818H531.483L492.172 226.889C490.339 232.088 487.91 236.541 484.885 240.249C481.859 243.999 478.152 246.854 473.762 248.814C469.416 250.817 464.217 251.818 458.166 251.818ZM547.495 215V116.818H569.611V133.501H570.762C572.807 127.876 576.195 123.487 580.925 120.334C585.655 117.138 591.301 115.54 597.864 115.54C604.512 115.54 610.115 117.159 614.675 120.398C619.277 123.594 622.516 127.962 624.391 133.501H625.414C627.587 128.047 631.252 123.7 636.408 120.462C641.607 117.18 647.765 115.54 654.881 115.54C663.915 115.54 671.287 118.395 676.998 124.105C682.708 129.815 685.563 138.146 685.563 149.098V215H662.36V152.678C662.36 146.584 660.74 142.131 657.502 139.318C654.263 136.463 650.3 135.036 645.613 135.036C640.03 135.036 635.662 136.783 632.509 140.277C629.398 143.729 627.843 148.224 627.843 153.764V215H605.151V151.719C605.151 146.648 603.617 142.599 600.549 139.574C597.523 136.548 593.56 135.036 588.659 135.036C585.336 135.036 582.31 135.888 579.583 137.592C576.855 139.254 574.682 141.619 573.063 144.688C571.444 147.713 570.634 151.25 570.634 155.298V215H547.495ZM709.038 251.818V116.818H731.793V133.054H733.136C734.329 130.668 736.012 128.132 738.185 125.447C740.359 122.72 743.299 120.398 747.006 118.48C750.714 116.52 755.444 115.54 761.197 115.54C768.782 115.54 775.621 117.479 781.715 121.357C787.852 125.192 792.71 130.881 796.289 138.423C799.911 145.923 801.722 155.128 801.722 166.037C801.722 176.818 799.954 185.98 796.417 193.523C792.88 201.065 788.065 206.818 781.971 210.781C775.877 214.744 768.974 216.726 761.261 216.726C755.636 216.726 750.969 215.788 747.262 213.913C743.555 212.038 740.572 209.78 738.313 207.138C736.097 204.453 734.371 201.918 733.136 199.531H732.177V251.818H709.038ZM731.729 165.909C731.729 172.259 732.624 177.82 734.414 182.592C736.246 187.365 738.867 191.094 742.276 193.778C745.728 196.42 749.904 197.741 754.805 197.741C759.918 197.741 764.201 196.378 767.653 193.651C771.104 190.881 773.704 187.109 775.451 182.337C777.241 177.521 778.136 172.045 778.136 165.909C778.136 159.815 777.262 154.403 775.515 149.673C773.768 144.943 771.168 141.236 767.717 138.551C764.265 135.866 759.961 134.524 754.805 134.524C749.862 134.524 745.664 135.824 742.212 138.423C738.761 141.023 736.14 144.666 734.35 149.354C732.603 154.041 731.729 159.56 731.729 165.909ZM844.677 84.0909V215H821.538V84.0909H844.677ZM911.937 216.918C902.093 216.918 893.592 214.872 886.433 210.781C879.316 206.648 873.841 200.81 870.005 193.267C866.17 185.682 864.252 176.754 864.252 166.484C864.252 156.385 866.17 147.521 870.005 139.893C873.883 132.223 879.295 126.257 886.241 121.996C893.187 117.692 901.348 115.54 910.723 115.54C916.774 115.54 922.484 116.52 927.853 118.48C933.265 120.398 938.038 123.381 942.172 127.429C946.348 131.477 949.629 136.634 952.015 142.898C954.402 149.119 955.595 156.534 955.595 165.142V172.237H875.119V156.641H933.414C933.372 152.209 932.413 148.267 930.538 144.815C928.663 141.321 926.042 138.572 922.676 136.57C919.352 134.567 915.474 133.565 911.042 133.565C906.312 133.565 902.157 134.716 898.578 137.017C894.998 139.276 892.207 142.259 890.204 145.966C888.244 149.631 887.243 153.658 887.2 158.047V171.662C887.2 177.372 888.244 182.273 890.332 186.364C892.42 190.412 895.339 193.523 899.089 195.696C902.839 197.827 907.228 198.892 912.257 198.892C915.623 198.892 918.67 198.423 921.397 197.486C924.125 196.506 926.49 195.078 928.493 193.203C930.495 191.328 932.008 189.006 933.031 186.236L954.636 188.665C953.272 194.375 950.673 199.361 946.838 203.622C943.045 207.841 938.187 211.122 932.264 213.466C926.341 215.767 919.565 216.918 911.937 216.918Z" fill="#D9D9D9"/>
<mask id="path-28-outside-1_3031_385" maskUnits="userSpaceOnUse" x="969" y="76.5" width="140" height="157" fill="black">
<rect fill="white" x="969" y="76.5" width="140" height="157"/>
<path d="M1028.31 171.5H1049.31L1061.75 187.625L1070.63 198.125L1091.94 225.5H1069.44L1054.94 207.125L1048.75 198.375L1028.31 171.5ZM1095 150.5C1095 164.292 1092.42 176.104 1087.25 185.937C1082.13 195.729 1075.13 203.229 1066.25 208.437C1057.42 213.646 1047.4 216.25 1036.19 216.25C1024.98 216.25 1014.94 213.646 1006.06 208.437C997.229 203.187 990.229 195.667 985.063 185.875C979.938 176.042 977.375 164.25 977.375 150.5C977.375 136.708 979.938 124.917 985.063 115.125C990.229 105.292 997.229 97.7708 1006.06 92.5625C1014.94 87.3542 1024.98 84.75 1036.19 84.75C1047.4 84.75 1057.42 87.3542 1066.25 92.5625C1075.13 97.7708 1082.13 105.292 1087.25 115.125C1092.42 124.917 1095 136.708 1095 150.5ZM1071.69 150.5C1071.69 140.792 1070.17 132.604 1067.13 125.937C1064.13 119.229 1059.96 114.167 1054.62 110.75C1049.29 107.292 1043.15 105.563 1036.19 105.563C1029.23 105.563 1023.08 107.292 1017.75 110.75C1012.42 114.167 1008.23 119.229 1005.19 125.937C1002.19 132.604 1000.69 140.792 1000.69 150.5C1000.69 160.208 1002.19 168.417 1005.19 175.125C1008.23 181.792 1012.42 186.854 1017.75 190.312C1023.08 193.729 1029.23 195.437 1036.19 195.437C1043.15 195.437 1049.29 193.729 1054.62 190.312C1059.96 186.854 1064.13 181.792 1067.13 175.125C1070.17 168.417 1071.69 160.208 1071.69 150.5Z"/>
</mask>
<path d="M1028.31 171.5V163.5H1012.18L1021.94 176.343L1028.31 171.5ZM1049.31 171.5L1055.65 166.614L1053.25 163.5H1049.31V171.5ZM1061.75 187.625L1055.42 192.511L1055.52 192.653L1055.64 192.789L1061.75 187.625ZM1070.63 198.125L1076.94 193.21L1076.84 193.084L1076.73 192.961L1070.63 198.125ZM1091.94 225.5V233.5H1108.3L1098.25 220.585L1091.94 225.5ZM1069.44 225.5L1063.16 230.456L1065.56 233.5H1069.44V225.5ZM1054.94 207.125L1048.41 211.744L1048.53 211.916L1048.66 212.081L1054.94 207.125ZM1048.75 198.375L1055.28 193.756L1055.2 193.643L1055.12 193.532L1048.75 198.375ZM1087.25 185.937L1080.17 182.216L1080.16 182.228L1087.25 185.937ZM1066.25 208.437L1062.2 201.538L1062.19 201.542L1062.19 201.546L1066.25 208.437ZM1006.06 208.437L1001.98 215.315L1001.99 215.326L1002.01 215.337L1006.06 208.437ZM985.063 185.875L977.968 189.572L977.978 189.59L977.987 189.608L985.063 185.875ZM985.063 115.125L977.981 111.404L977.975 111.415L985.063 115.125ZM1006.06 92.5625L1002.01 85.6629L1002.01 85.667L1002 85.6712L1006.06 92.5625ZM1066.25 92.5625L1062.19 99.4538L1062.19 99.458L1062.2 99.4621L1066.25 92.5625ZM1087.25 115.125L1080.16 118.822L1080.17 118.84L1080.17 118.858L1087.25 115.125ZM1067.13 125.937L1059.82 129.203L1059.83 129.231L1059.85 129.258L1067.13 125.937ZM1054.62 110.75L1050.27 117.462L1050.29 117.474L1050.31 117.486L1054.62 110.75ZM1017.75 110.75L1022.07 117.486L1022.08 117.474L1022.1 117.462L1017.75 110.75ZM1005.19 125.937L997.901 122.634L997.897 122.644L997.892 122.655L1005.19 125.937ZM1005.19 175.125L997.885 178.391L997.897 178.418L997.909 178.446L1005.19 175.125ZM1017.75 190.312L1013.4 197.025L1013.42 197.037L1013.43 197.049L1017.75 190.312ZM1054.62 190.312L1058.94 197.049L1058.96 197.037L1058.98 197.025L1054.62 190.312ZM1067.13 175.125L1059.84 171.821L1059.83 171.832L1059.83 171.842L1067.13 175.125ZM1028.31 171.5V179.5H1049.31V171.5V163.5H1028.31V171.5ZM1049.31 171.5L1042.98 176.386L1055.42 192.511L1061.75 187.625L1068.08 182.739L1055.65 166.614L1049.31 171.5ZM1061.75 187.625L1055.64 192.789L1064.52 203.289L1070.63 198.125L1076.73 192.961L1067.86 182.461L1061.75 187.625ZM1070.63 198.125L1064.31 203.04L1085.63 230.415L1091.94 225.5L1098.25 220.585L1076.94 193.21L1070.63 198.125ZM1091.94 225.5V217.5H1069.44V225.5V233.5H1091.94V225.5ZM1069.44 225.5L1075.72 220.544L1061.22 202.169L1054.94 207.125L1048.66 212.081L1063.16 230.456L1069.44 225.5ZM1054.94 207.125L1061.47 202.506L1055.28 193.756L1048.75 198.375L1042.22 202.994L1048.41 211.744L1054.94 207.125ZM1048.75 198.375L1055.12 193.532L1034.68 166.657L1028.31 171.5L1021.94 176.343L1042.38 203.218L1048.75 198.375ZM1095 150.5H1087C1087 163.303 1084.6 173.775 1080.17 182.216L1087.25 185.937L1094.33 189.659C1100.23 178.433 1103 165.28 1103 150.5H1095ZM1087.25 185.937L1080.16 182.228C1075.68 190.795 1069.69 197.144 1062.2 201.538L1066.25 208.437L1070.3 215.337C1080.56 209.315 1088.57 200.663 1094.34 189.647L1087.25 185.937ZM1066.25 208.437L1062.19 201.546C1054.7 205.962 1046.1 208.25 1036.19 208.25V216.25V224.25C1048.69 224.25 1060.14 221.33 1070.31 215.329L1066.25 208.437ZM1036.19 216.25V208.25C1026.27 208.25 1017.65 205.962 1010.11 201.538L1006.06 208.437L1002.01 215.337C1012.22 221.33 1023.69 224.25 1036.19 224.25V216.25ZM1006.06 208.437L1010.15 201.56C1002.68 197.121 996.672 190.735 992.138 182.142L985.063 185.875L977.987 189.608C983.786 200.598 991.777 209.254 1001.98 215.315L1006.06 208.437ZM985.063 185.875L992.157 182.178C987.753 173.728 985.375 163.266 985.375 150.5H977.375H969.375C969.375 165.234 972.122 178.356 977.968 189.572L985.063 185.875ZM977.375 150.5H985.375C985.375 137.686 987.755 127.232 992.15 118.835L985.063 115.125L977.975 111.415C972.12 122.601 969.375 135.73 969.375 150.5H977.375ZM985.063 115.125L992.144 118.846C996.679 110.216 1002.68 103.844 1010.13 99.4538L1006.06 92.5625L1002 85.6712C991.778 91.6978 983.779 100.368 977.981 111.404L985.063 115.125ZM1006.06 92.5625L1010.11 99.4621C1017.65 95.0378 1026.27 92.75 1036.19 92.75V84.75V76.75C1023.69 76.75 1012.22 79.6705 1002.01 85.6629L1006.06 92.5625ZM1036.19 84.75V92.75C1046.1 92.75 1054.7 95.0379 1062.19 99.4538L1066.25 92.5625L1070.31 85.6712C1060.14 79.6704 1048.69 76.75 1036.19 76.75V84.75ZM1066.25 92.5625L1062.2 99.4621C1069.68 103.851 1075.67 110.214 1080.16 118.822L1087.25 115.125L1094.34 111.428C1088.58 100.37 1080.57 91.6907 1070.3 85.6629L1066.25 92.5625ZM1087.25 115.125L1080.17 118.858C1084.6 127.25 1087 137.696 1087 150.5H1095H1103C1103 135.721 1100.23 122.583 1094.33 111.392L1087.25 115.125ZM1071.69 150.5H1079.69C1079.69 140 1078.05 130.606 1074.4 122.617L1067.13 125.937L1059.85 129.258C1062.28 134.602 1063.69 141.583 1063.69 150.5H1071.69ZM1067.13 125.937L1074.43 122.672C1070.9 114.773 1065.79 108.399 1058.94 104.014L1054.62 110.75L1050.31 117.486C1054.13 119.934 1057.35 123.685 1059.82 129.203L1067.13 125.937ZM1054.62 110.75L1058.98 104.038C1052.23 99.6598 1044.54 97.5625 1036.19 97.5625V105.563V113.563C1041.75 113.563 1046.36 114.924 1050.27 117.462L1054.62 110.75ZM1036.19 105.563V97.5625C1027.84 97.5625 1020.15 99.6598 1013.4 104.038L1017.75 110.75L1022.1 117.462C1026.02 114.924 1030.62 113.563 1036.19 113.563V105.563ZM1017.75 110.75L1013.43 104.014C1006.6 108.392 1001.47 114.753 997.901 122.634L1005.19 125.937L1012.47 129.241C1014.98 123.706 1018.23 119.941 1022.07 117.486L1017.75 110.75ZM1005.19 125.937L997.892 122.655C994.302 130.633 992.688 140.013 992.688 150.5H1000.69H1008.69C1008.69 141.571 1010.07 134.575 1012.48 129.22L1005.19 125.937ZM1000.69 150.5H992.688C992.688 160.99 994.303 170.382 997.885 178.391L1005.19 175.125L1012.49 171.859C1010.07 166.452 1008.69 159.427 1008.69 150.5H1000.69ZM1005.19 175.125L997.909 178.446C1001.48 186.282 1006.6 192.617 1013.4 197.025L1017.75 190.312L1022.1 183.6C1018.23 181.091 1014.97 177.302 1012.47 171.804L1005.19 175.125ZM1017.75 190.312L1013.43 197.049C1020.18 201.371 1027.86 203.437 1036.19 203.437V195.437V187.437C1030.6 187.437 1025.98 186.087 1022.07 183.576L1017.75 190.312ZM1036.19 195.437V203.437C1044.52 203.437 1052.19 201.371 1058.94 197.049L1054.62 190.312L1050.31 183.576C1046.39 186.087 1041.77 187.437 1036.19 187.437V195.437ZM1054.62 190.312L1058.98 197.025C1065.79 192.61 1070.89 186.261 1074.42 178.408L1067.13 175.125L1059.83 171.842C1057.36 177.322 1054.13 181.098 1050.27 183.6L1054.62 190.312ZM1067.13 175.125L1074.41 178.429C1078.05 170.408 1079.69 161.002 1079.69 150.5H1071.69H1063.69C1063.69 159.414 1062.29 166.425 1059.84 171.821L1067.13 175.125Z" fill="#D9D9D9" mask="url(#path-28-outside-1_3031_385)"/>
</g>
</g>
<defs>
<clipPath id="clip0_3031_385">
<rect width="1105" height="300" fill="white"/>
</clipPath>
<clipPath id="clip1_3031_385">
<rect width="300" height="300" fill="white"/>
</clipPath>
<clipPath id="clip2_3031_385">
<rect width="790" height="218" fill="white" transform="translate(315 41)"/>
</clipPath>
</defs>
</svg>
